<svg id="visual" viewBox="0 0 768 1024" width="768" height="1024" xmlns="http://www.w3.org/2000/svg" xmlns:xlink="http://www.w3.org/1999/xlink" version="1.1"><rect x="0" y="0" width="768" height="1024" fill="#ffffff"></rect><path d="M0 147L8.5 152.3C17 157.7 34 168.3 51 171.8C68 175.3 85 171.7 102.2 169.8C119.3 168 136.7 168 153.8 164.7C171 161.3 188 154.7 205 142.2C222 129.7 239 111.3 256 104.7C273 98 290 103 307 116.8C324 130.7 341 153.3 358.2 155C375.3 156.7 392.7 137.3 409.8 137.5C427 137.7 444 157.3 461 165.2C478 173 495 169 512 166.2C529 163.3 546 161.7 563 149C580 136.3 597 112.7 614.2 110C631.3 107.3 648.7 125.7 665.8 126C683 126.3 700 108.7 717 102.8C734 97 751 103 759.5 106L768 109L768 0L759.5 0C751 0 734 0 717 0C700 0 683 0 665.8 0C648.7 0 631.3 0 614.2 0C597 0 580 0 563 0C546 0 529 0 512 0C495 0 478 0 461 0C444 0 427 0 409.8 0C392.7 0 375.3 0 358.2 0C341 0 324 0 307 0C290 0 273 0 256 0C239 0 222 0 205 0C188 0 171 0 153.8 0C136.7 0 119.3 0 102.2 0C85 0 68 0 51 0C34 0 17 0 8.5 0L0 0Z" fill="#eb8f80"></path><path d="M0 104L8.5 106.7C17 109.3 34 114.7 51 118.7C68 122.7 85 125.3 102.2 119.2C119.3 113 136.7 98 153.8 95.3C171 92.7 188 102.3 205 113.2C222 124 239 136 256 132.2C273 128.3 290 108.7 307 95.5C324 82.3 341 75.7 358.2 83C375.3 90.3 392.7 111.7 409.8 119.5C427 127.3 444 121.7 461 121C478 120.3 495 124.7 512 122.7C529 120.7 546 112.3 563 105C580 97.7 597 91.3 614.2 92.5C631.3 93.7 648.7 102.3 665.8 103.3C683 104.3 700 97.7 717 94.7C734 91.7 751 92.3 759.5 92.7L768 93L768 0L759.5 0C751 0 734 0 717 0C700 0 683 0 665.8 0C648.7 0 631.3 0 614.2 0C597 0 580 0 563 0C546 0 529 0 512 0C495 0 478 0 461 0C444 0 427 0 409.8 0C392.7 0 375.3 0 358.2 0C341 0 324 0 307 0C290 0 273 0 256 0C239 0 222 0 205 0C188 0 171 0 153.8 0C136.7 0 119.3 0 102.2 0C85 0 68 0 51 0C34 0 17 0 8.5 0L0 0Z" fill="#deaa77"></path><path d="M0 79L8.5 78C17 77 34 75 51 73.7C68 72.3 85 71.7 102.2 75.7C119.3 79.7 136.7 88.3 153.8 92C171 95.7 188 94.3 205 86.7C222 79 239 65 256 59.3C273 53.7 290 56.3 307 58.8C324 61.3 341 63.7 358.2 62.2C375.3 60.7 392.7 55.3 409.8 53.7C427 52 444 54 461 59.3C478 64.7 495 73.3 512 77C529 80.7 546 79.3 563 82.8C580 86.3 597 94.7 614.2 92.7C631.3 90.7 648.7 78.3 665.8 74.7C683 71 700 76 717 83.7C734 91.3 751 101.7 759.5 106.8L768 112L768 0L759.5 0C751 0 734 0 717 0C700 0 683 0 665.8 0C648.7 0 631.3 0 614.2 0C597 0 580 0 563 0C546 0 529 0 512 0C495 0 478 0 461 0C444 0 427 0 409.8 0C392.7 0 375.3 0 358.2 0C341 0 324 0 307 0C290 0 273 0 256 0C239 0 222 0 205 0C188 0 171 0 153.8 0C136.7 0 119.3 0 102.2 0C85 0 68 0 51 0C34 0 17 0 8.5 0L0 0Z" fill="#c8c487"></path><path d="M0 35L8.5 38.2C17 41.3 34 47.7 51 48.7C68 49.7 85 45.3 102.2 47.2C119.3 49 136.7 57 153.8 64.2C171 71.3 188 77.7 205 77.3C222 77 239 70 256 63.8C273 57.7 290 52.3 307 48.5C324 44.7 341 42.3 358.2 48.2C375.3 54 392.7 68 409.8 71C427 74 444 66 461 66C478 66 495 74 512 69.8C529 65.7 546 49.3 563 45C580 40.7 597 48.3 614.2 56.3C631.3 64.3 648.7 72.7 665.8 71.7C683 70.7 700 60.3 717 52.8C734 45.3 751 40.7 759.5 38.3L768 36L768 0L759.5 0C751 0 734 0 717 0C700 0 683 0 665.8 0C648.7 0 631.3 0 614.2 0C597 0 580 0 563 0C546 0 529 0 512 0C495 0 478 0 461 0C444 0 427 0 409.8 0C392.7 0 375.3 0 358.2 0C341 0 324 0 307 0C290 0 273 0 256 0C239 0 222 0 205 0C188 0 171 0 153.8 0C136.7 0 119.3 0 102.2 0C85 0 68 0 51 0C34 0 17 0 8.5 0L0 0Z" fill="#b2d9ab"></path><path d="M0 51L8.5 48.7C17 46.3 34 41.7 51 35C68 28.3 85 19.7 102.2 17C119.3 14.3 136.7 17.7 153.8 19.2C171 20.7 188 20.3 205 25.2C222 30 239 40 256 43.8C273 47.7 290 45.3 307 46.3C324 47.3 341 51.7 358.2 52.3C375.3 53 392.7 50 409.8 42.3C427 34.7 444 22.3 461 20C478 17.7 495 25.3 512 30.3C529 35.3 546 37.7 563 37.8C580 38 597 36 614.2 37.7C631.3 39.3 648.7 44.7 665.8 43.5C683 42.3 700 34.7 717 31.8C734 29 751 31 759.5 32L768 33L768 0L759.5 0C751 0 734 0 717 0C700 0 683 0 665.8 0C648.7 0 631.3 0 614.2 0C597 0 580 0 563 0C546 0 529 0 512 0C495 0 478 0 461 0C444 0 427 0 409.8 0C392.7 0 375.3 0 358.2 0C341 0 324 0 307 0C290 0 273 0 256 0C239 0 222 0 205 0C188 0 171 0 153.8 0C136.7 0 119.3 0 102.2 0C85 0 68 0 51 0C34 0 17 0 8.5 0L0 0Z" fill="#aae8d6"></path></svg>